<svg version="1.1" id="Layer_1" xmlns="http://www.w3.org/2000/svg" xmlns:xlink="http://www.w3.org/1999/xlink" x="0px" y="0px"
	 width="100%" viewBox="0 0 607 469" enable-background="new 0 0 607 469" xml:space="preserve">
<path fill="#FFFFFF" opacity="1.000000" stroke="none" 
	d="
M317.000000,470.000000 
	C211.357742,470.000000 106.215500,470.000000 1.036623,470.000000 
	C1.036623,313.727386 1.036623,157.454758 1.036623,1.000000 
	C102.082397,1.000000 203.164902,1.000000 304.247406,1.000000 
	C405.390594,1.000000 506.533752,1.000000 607.838501,1.000000 
	C607.838501,157.333206 607.838501,313.666595 607.838501,470.000000 
	C511.121368,470.000000 414.310699,470.000000 317.000000,470.000000 
M157.524185,259.113525 
	C154.086243,262.495636 150.622864,265.852295 147.216049,269.265472 
	C141.384018,275.108398 141.395447,276.783966 147.304001,282.691315 
	C181.659195,317.039368 216.017029,351.384796 250.397888,385.707184 
	C251.917465,387.224213 253.474869,389.146790 255.367722,389.725281 
	C257.373627,390.338409 260.668304,390.465942 261.908600,389.265076 
	C272.172394,379.327820 282.090057,369.033081 292.788269,358.986969 
	C293.598175,359.554535 294.500702,360.026031 295.204010,360.704163 
	C304.892914,370.046478 314.620117,379.350830 324.186066,388.817963 
	C327.413849,392.012421 330.057434,392.392456 333.445496,388.996094 
	C369.039551,353.315186 404.716888,317.717346 440.344666,282.070007 
	C443.970154,278.442535 443.985168,276.016144 440.444397,272.265961 
	C438.871613,270.600098 436.961700,269.252563 435.059662,266.985168 
	C435.059662,265.184265 435.059662,263.383331 435.059662,260.584076 
	C439.197937,266.652100 444.298004,267.965454 450.171326,265.688110 
	C456.251740,263.330475 458.334290,258.160309 458.467010,252.154587 
	C458.598999,246.182312 458.576996,240.178848 458.110077,234.229263 
	C457.678558,228.730362 454.974915,224.518158 449.333374,222.793610 
	C443.430817,220.989258 438.638947,222.312988 435.770233,227.489838 
	C434.071899,225.630020 432.440582,223.843567 431.087830,221.424103 
	C434.493225,217.781601 437.909180,214.148865 441.300568,210.493347 
	C443.771149,207.830368 443.664185,205.061325 441.266998,202.492020 
	C438.896698,199.951523 436.311188,197.612961 433.849426,195.156403 
	C401.070435,162.446671 368.296936,129.731461 335.520294,97.019379 
	C334.341492,95.842888 333.208069,94.609955 331.942993,93.533127 
	C329.291595,91.276237 326.435791,91.070763 323.901886,93.549950 
	C313.559143,103.669449 303.304779,113.879295 292.420837,123.748444 
	C282.624207,114.236488 272.854706,104.696404 263.019409,95.224594 
	C258.201599,90.584854 255.929443,90.563431 251.208939,95.196495 
	C243.005280,103.248230 234.919830,111.420258 226.749084,119.505745 
	C211.240051,134.852997 195.684631,150.153442 180.189148,165.514343 
	C169.185791,176.422119 158.214111,187.362396 147.297043,198.356430 
	C141.529327,204.164810 141.595688,206.618301 147.318542,212.544846 
	C148.822830,214.102646 150.437408,215.558060 151.886642,217.163986 
	C154.751755,220.338791 157.536789,223.585861 159.981644,227.528885 
	C159.017365,230.833450 157.309036,234.123047 157.242264,237.445648 
	C157.099182,244.564957 157.804092,251.701294 157.524185,259.113525 
M94.318771,267.006622 
	C106.695602,265.929016 114.596275,258.834259 114.697220,248.033142 
	C114.715683,246.056427 112.671799,242.855606 110.908211,242.280869 
	C104.170998,240.085236 100.932701,242.395523 99.632713,249.270065 
	C99.509842,249.919846 99.309418,250.557343 99.111954,251.190216 
	C98.140480,254.303894 96.492012,256.456726 92.777077,256.371124 
	C88.761810,256.278503 88.025177,253.318344 87.246704,250.412216 
	C86.953171,249.316391 87.089226,248.096375 87.087730,246.932907 
	C87.077446,238.939621 87.000450,230.945114 87.119598,222.953598 
	C87.174126,219.296387 87.915665,215.872070 92.613838,215.483749 
	C97.424927,215.086060 98.902046,218.229202 99.672363,222.110016 
	C99.800606,222.756134 99.767792,223.432999 99.828827,224.093872 
	C100.269012,228.859177 102.468147,230.392853 108.517921,230.160156 
	C113.236504,229.978638 114.964325,228.129715 114.937637,223.290405 
	C114.874458,211.832748 106.828217,204.076248 94.741348,203.821365 
	C81.596199,203.544159 72.538139,210.816223 72.102470,222.363342 
	C71.807587,230.179291 71.981888,238.014099 71.997055,245.840363 
	C72.025505,260.522308 78.716362,267.123993 94.318771,267.006622 
M545.082825,255.149139 
	C541.246338,250.945526 537.158325,251.207687 532.215820,255.266739 
	C530.571716,256.616913 527.365906,257.856995 525.856506,257.124115 
	C523.988525,256.217102 522.956116,253.289795 521.937622,251.063797 
	C521.458557,250.016800 521.855591,248.568954 521.855591,246.988602 
	C528.127441,246.988602 533.939270,247.039536 539.749634,246.967819 
	C542.802124,246.930145 545.312378,245.982101 545.965332,242.474655 
	C547.956421,231.778854 542.700989,223.768082 532.036255,222.315414 
	C527.857666,221.746262 523.377686,222.220184 519.205627,223.063522 
	C513.744629,224.167389 509.668762,227.806595 509.117828,233.436829 
	C508.427795,240.488449 508.363312,247.679855 508.886353,254.747437 
	C509.324982,260.673676 513.695312,264.183502 519.143311,265.733246 
	C525.688965,267.595215 532.371948,267.299561 538.721924,264.766632 
	C542.554016,263.238068 545.788147,260.831207 545.082825,255.149139 
M479.885315,267.035980 
	C482.379852,267.007172 484.897186,267.184113 487.364594,266.910614 
	C494.513458,266.118164 499.050140,262.374146 500.309021,256.490936 
	C501.537750,250.748947 499.456665,246.509552 493.129608,242.554459 
	C490.181427,240.711548 486.800049,239.519394 483.999878,237.498947 
	C482.510223,236.424072 481.765625,234.245697 480.949524,232.445389 
	C480.885529,232.304169 483.165070,230.464767 483.909149,230.719299 
	C485.720947,231.339066 488.107117,232.364075 488.761230,233.875427 
	C490.426025,237.721924 493.111420,238.065201 496.451904,237.257263 
	C500.359314,236.312225 501.089294,233.076248 499.737488,230.253128 
	C498.421692,227.505096 496.029755,224.058075 493.461884,223.382462 
	C488.470306,222.069153 482.989990,221.971298 477.777405,222.326813 
	C472.907593,222.658966 469.060699,225.309113 467.681091,230.543503 
	C466.240662,236.008667 468.445496,240.030136 472.761810,242.992386 
	C476.442963,245.518753 480.608185,247.377060 484.115265,250.102325 
	C485.632782,251.281525 486.239746,253.846115 486.755676,255.907700 
	C486.850769,256.287689 484.241699,258.104858 483.373596,257.809631 
	C481.473572,257.163452 478.907532,255.920654 478.366791,254.326736 
	C476.926422,250.080688 474.223236,249.364151 470.618164,250.422485 
	C466.636566,251.591370 466.499664,254.782761 467.453278,258.060059 
	C469.116577,263.776306 473.672516,265.909332 479.885315,267.035980 
M125.186867,264.126312 
	C127.675758,264.903137 130.618668,266.864746 132.529327,266.132599 
	C134.549332,265.358551 136.426529,262.171722 136.863983,259.765747 
	C137.597778,255.729919 137.222763,251.476532 137.167023,247.316666 
	C137.072662,240.274643 138.608536,235.534546 146.886765,235.228943 
	C150.187180,235.107101 152.341248,233.096069 152.099319,229.807281 
	C151.923004,227.410355 151.068634,223.439896 149.759720,223.101913 
	C147.347626,222.479080 143.974625,223.389481 141.761719,224.828888 
	C139.745804,226.140167 138.737167,228.999985 137.071426,231.496689 
	C136.723419,230.312637 136.317123,229.422348 136.215271,228.498520 
	C135.774460,224.500381 134.079361,221.796692 129.593231,222.158142 
	C125.391495,222.496658 124.065514,225.457062 123.977348,229.100983 
	C123.824364,235.423950 123.718246,241.754608 123.858932,248.076111 
	C123.972900,253.197174 124.478226,258.309540 125.186867,264.126312 
z"/>
<path fill="#FF9798" opacity="1.000000" stroke="none" 
	d="
M160.354919,226.803070 
	C157.536789,223.585861 154.751755,220.338791 151.886642,217.163986 
	C150.437408,215.558060 148.822830,214.102646 147.318542,212.544846 
	C141.595688,206.618301 141.529327,204.164810 147.297043,198.356430 
	C158.214111,187.362396 169.185791,176.422119 180.189148,165.514343 
	C195.684631,150.153442 211.240051,134.852997 226.749084,119.505745 
	C234.919830,111.420258 243.005280,103.248230 251.208939,95.196495 
	C255.929443,90.563431 258.201599,90.584854 263.019409,95.224594 
	C272.854706,104.696404 282.624207,114.236488 292.858887,124.201538 
	C295.070984,126.836357 296.668915,129.194016 298.646057,131.172821 
	C320.255676,152.800476 341.939209,174.354233 363.558380,195.972366 
	C366.218872,198.632721 368.621582,201.550873 370.915344,204.594025 
	C369.473175,207.866180 368.259338,210.893890 366.738617,214.064529 
	C362.150818,218.202530 357.869904,222.197586 353.247009,226.144455 
	C342.681000,219.444534 330.462250,220.629700 322.028687,228.786469 
	C317.851868,224.328491 313.863342,220.156891 310.030060,215.662384 
	C310.983398,213.023407 312.916168,210.299301 312.269989,208.502686 
	C311.583252,206.593216 308.623047,204.906082 306.345215,204.312195 
	C303.379242,203.538879 300.107574,203.937958 296.820312,203.553391 
	C295.126251,201.808456 293.579346,200.342621 292.024963,198.501282 
	C291.301208,196.538391 290.941101,194.615616 289.812195,193.416870 
	C281.055023,184.118011 272.197266,174.912155 263.270538,165.775375 
	C258.492584,160.884979 256.684418,160.875839 251.731033,165.772705 
	C239.800873,177.566788 227.948853,189.440292 216.133072,201.349014 
	C215.169022,202.320648 214.721497,203.804810 213.720154,205.019836 
	C212.933502,205.327118 212.460648,205.665375 211.745667,206.073883 
	C211.333679,206.422470 211.163834,206.700806 210.650238,207.007111 
	C204.462433,212.776566 198.618408,218.518082 192.466934,224.061707 
	C189.879486,223.352386 187.254868,221.899521 185.409439,222.575134 
	C183.252548,223.364731 181.775299,226.010925 180.066101,227.786301 
	C175.041565,220.551941 167.970261,220.040344 160.354919,226.803070 
z"/>
<path fill="#FF9898" opacity="1.000000" stroke="none" 
	d="
M435.204834,267.760498 
	C436.961700,269.252563 438.871613,270.600098 440.444397,272.265961 
	C443.985168,276.016144 443.970154,278.442535 440.344666,282.070007 
	C404.716888,317.717346 369.039551,353.315186 333.445496,388.996094 
	C330.057434,392.392456 327.413849,392.012421 324.186066,388.817963 
	C314.620117,379.350830 304.892914,370.046478 295.204010,360.704163 
	C294.500702,360.026031 293.598175,359.554535 292.430481,358.564819 
	C290.886047,356.410950 289.934998,354.444305 288.477570,352.982513 
	C264.709015,329.143463 240.863281,305.381409 217.068680,281.568268 
	C211.988174,276.483795 212.064484,275.279053 217.282379,270.281708 
	C224.975052,262.914124 232.656189,255.534103 240.406952,248.228043 
	C241.445602,247.248978 242.861588,246.670273 244.240204,246.346298 
	C244.864685,251.055725 244.876572,255.450424 245.961334,259.562073 
	C247.267502,264.512939 251.710022,266.924652 257.653290,266.937164 
	C263.925537,266.950378 266.353790,265.256226 268.719238,259.563782 
	C270.407135,260.890900 271.816376,262.048523 273.110016,263.323456 
	C280.079926,270.192474 287.021118,277.090607 293.978027,284.361755 
	C294.803925,286.453857 295.251831,288.524048 296.503723,289.814087 
	C305.415924,298.997986 314.602600,307.916748 323.460236,317.151672 
	C326.835571,320.670807 329.864014,320.797363 333.344818,317.764435 
	C334.720367,316.565887 336.062927,315.323975 337.355804,314.036865 
	C354.671295,296.798798 371.960510,279.534241 389.310730,262.331207 
	C390.675354,260.978149 392.444824,260.033417 394.195282,259.241333 
	C394.851898,263.817627 396.517273,266.994354 401.411316,266.898926 
	C405.374817,266.821655 407.631744,263.929504 407.892487,258.413666 
	C408.119781,253.605835 408.064301,248.784622 408.404846,243.823517 
	C409.435364,243.415527 410.194794,243.153336 411.166595,243.160217 
	C414.590851,246.609756 417.802734,249.790207 421.138519,253.427246 
	C421.407104,261.985809 421.411987,270.093719 421.757141,278.187134 
	C421.922668,282.068970 423.950562,284.943726 428.251099,284.852936 
	C432.716553,284.758728 434.576080,281.726746 434.893341,277.673950 
	C435.151031,274.381500 435.112183,271.065857 435.204834,267.760498 
z"/>
<path fill="#FFDB9C" opacity="1.000000" stroke="none" 
	d="
M410.954224,242.891144 
	C410.194794,243.153336 409.435364,243.415527 408.323303,243.364822 
	C407.891022,238.088501 408.122711,233.093674 407.626343,228.172272 
	C407.273254,224.671204 405.289520,222.001770 401.133301,222.021866 
	C397.031067,222.041702 395.190063,224.537048 394.594910,228.142914 
	C394.220245,230.412827 394.190002,232.753860 394.165436,235.064697 
	C394.080933,243.009033 394.066986,250.954117 394.026154,258.898926 
	C392.444824,260.033417 390.675354,260.978149 389.310730,262.331207 
	C371.960510,279.534241 354.671295,296.798798 337.355804,314.036865 
	C336.062927,315.323975 334.720367,316.565887 333.344818,317.764435 
	C329.864014,320.797363 326.835571,320.670807 323.460236,317.151672 
	C314.602600,307.916748 305.415924,298.997986 296.503723,289.814087 
	C295.251831,288.524048 294.803925,286.453857 294.124573,284.062378 
	C297.146088,280.419434 300.116150,277.539459 302.881104,274.474426 
	C305.361145,271.725250 307.615570,268.772461 309.977264,265.945374 
	C309.985016,265.981262 309.911743,265.976990 310.243286,265.943970 
	C310.971069,265.466888 311.367310,265.022797 311.793152,264.693176 
	C311.822754,264.807617 311.587402,264.785370 311.924011,264.719055 
	C312.472717,264.045715 312.684753,263.438721 312.864441,262.889252 
	C312.832092,262.946777 312.731781,262.861023 313.090332,262.928162 
	C315.902283,260.964020 318.355713,258.932678 321.028748,257.174255 
	C326.308990,268.565918 343.393311,268.720734 351.476959,263.737518 
	C353.741943,262.341248 355.831451,259.898346 356.841034,257.455902 
	C357.734863,255.293610 358.007874,251.125366 356.791046,250.224014 
	C354.622711,248.617859 351.016846,248.100067 348.220917,248.519318 
	C346.592346,248.763504 344.803192,251.512070 344.101349,253.493408 
	C343.135345,256.220337 341.700989,258.376923 338.962250,257.653351 
	C337.049652,257.148071 334.451508,255.022552 334.194000,253.314117 
	C333.592316,249.321732 334.216125,245.144638 334.730255,241.116501 
	C339.893219,243.645325 340.660706,237.940109 343.830933,237.331512 
	C345.719025,241.581528 349.786011,243.225281 354.083038,241.678543 
	C358.096649,240.233810 358.620514,237.021118 357.420074,233.572754 
	C356.518188,230.982117 354.892487,228.643448 353.588989,226.192627 
	C357.869904,222.197586 362.150818,218.202530 366.841980,214.531815 
	C367.314056,229.504745 367.235992,244.155960 367.508820,258.800629 
	C367.612854,264.384277 370.199249,267.002472 374.296722,266.913666 
	C378.296295,266.827026 380.854309,263.957275 380.905701,258.572052 
	C381.051880,243.257401 381.088806,227.938995 380.907440,212.625153 
	C380.823578,205.545395 378.327484,203.677582 371.143707,204.349564 
	C368.621582,201.550873 366.218872,198.632721 363.558380,195.972366 
	C341.939209,174.354233 320.255676,152.800476 298.646057,131.172821 
	C296.668915,129.194016 295.070984,126.836357 293.157410,124.355240 
	C303.304779,113.879295 313.559143,103.669449 323.901886,93.549950 
	C326.435791,91.070763 329.291595,91.276237 331.942993,93.533127 
	C333.208069,94.609955 334.341492,95.842888 335.520294,97.019379 
	C368.296936,129.731461 401.070435,162.446671 433.849426,195.156403 
	C436.311188,197.612961 438.896698,199.951523 441.266998,202.492020 
	C443.664185,205.061325 443.771149,207.830368 441.300568,210.493347 
	C437.909180,214.148865 434.493225,217.781601 430.554077,221.772919 
	C423.383240,222.036942 422.365814,223.137207 420.748840,231.963272 
	C417.275848,235.707611 414.115021,239.299377 410.954224,242.891144 
M404.400726,216.972290 
	C408.007568,215.365784 408.623993,212.114212 407.702667,209.016190 
	C407.151733,207.163620 404.965332,204.716354 403.295013,204.533157 
	C400.838623,204.263718 397.207428,205.026367 395.890533,206.741776 
	C394.547150,208.491791 394.278259,212.898987 395.565796,214.376266 
	C397.204529,216.256470 400.880463,216.361130 404.400726,216.972290 
z"/>
<path fill="#FEDB9C" opacity="1.000000" stroke="none" 
	d="
M244.102859,245.906189 
	C242.861588,246.670273 241.445602,247.248978 240.406952,248.228043 
	C232.656189,255.534103 224.975052,262.914124 217.282379,270.281708 
	C212.064484,275.279053 211.988174,276.483795 217.068680,281.568268 
	C240.863281,305.381409 264.709015,329.143463 288.477570,352.982513 
	C289.934998,354.444305 290.886047,356.410950 292.092590,358.494629 
	C282.090057,369.033081 272.172394,379.327820 261.908600,389.265076 
	C260.668304,390.465942 257.373627,390.338409 255.367722,389.725281 
	C253.474869,389.146790 251.917465,387.224213 250.397888,385.707184 
	C216.017029,351.384796 181.659195,317.039368 147.304001,282.691315 
	C141.395447,276.783966 141.384018,275.108398 147.216049,269.265472 
	C150.622864,265.852295 154.086243,262.495636 158.132187,259.162964 
	C164.562531,268.810120 172.804047,269.542877 180.650406,260.938934 
	C181.623306,265.519318 184.609711,267.528717 188.930466,266.808533 
	C193.522400,266.043152 194.154510,262.262756 194.199051,258.417114 
	C194.279861,251.440353 194.480682,244.456482 194.255783,237.487717 
	C194.113098,233.067017 193.291504,228.668213 192.774384,224.259598 
	C198.618408,218.518082 204.462433,212.776566 210.735443,207.089981 
	C211.164398,207.144897 211.338791,207.306427 211.211472,207.644653 
	C209.736938,212.483276 208.389725,216.983658 206.923462,221.881729 
	C204.020218,222.256897 199.442963,221.495865 199.191360,227.089874 
	C198.913818,233.260315 203.935989,232.684464 208.058609,233.333313 
	C208.058609,241.004211 208.044998,248.471573 208.062393,255.938843 
	C208.080368,263.654205 210.217316,266.995483 215.046143,266.932373 
	C219.547699,266.873474 221.815430,263.297943 221.842102,256.096252 
	C221.870316,248.485016 221.848450,240.873596 221.848450,233.229141 
	C226.012024,232.758667 230.428513,233.363159 230.848816,227.840622 
	C231.371048,220.978546 225.495560,222.665634 221.727539,221.454483 
	C221.963226,219.493683 222.171600,217.760117 222.373688,216.078812 
	C223.429443,215.963699 223.921509,215.816193 224.388031,215.874115 
	C227.913620,216.312012 230.700104,215.638458 231.402847,211.515717 
	C232.140274,207.189590 229.411453,205.039261 225.965698,204.642960 
	C222.110657,204.199585 218.115860,204.971298 214.145538,205.172821 
	C214.109177,205.131409 214.033966,205.050827 214.033966,205.050827 
	C214.721497,203.804810 215.169022,202.320648 216.133072,201.349014 
	C227.948853,189.440292 239.800873,177.566788 251.731033,165.772705 
	C256.684418,160.875839 258.492584,160.884979 263.270538,165.775375 
	C272.197266,174.912155 281.055023,184.118011 289.812195,193.416870 
	C290.941101,194.615616 291.301208,196.538391 291.766357,198.699432 
	C290.326477,200.797043 289.137695,202.320969 287.542267,203.916061 
	C279.926544,204.210052 278.837585,205.388275 277.655457,214.064240 
	C274.151733,217.548828 270.950531,220.886185 267.434082,224.016754 
	C264.249390,222.927994 261.379913,222.046021 258.218964,221.074463 
	C258.033417,217.644257 258.105438,213.662460 257.524109,209.778458 
	C256.982788,206.161499 254.828674,203.704346 250.707153,204.078156 
	C246.981857,204.416046 245.120987,206.753525 244.812347,210.277756 
	C244.483795,214.029251 244.422684,217.804153 244.235779,221.759659 
	C240.483170,222.271347 235.850586,221.346909 235.605942,226.998993 
	C235.337494,233.200897 240.599045,232.323257 244.102859,233.266144 
	C244.102859,237.679123 244.102859,241.792648 244.102859,245.906189 
z"/>
<path fill="#050505" opacity="1.000000" stroke="none" 
	d="
M93.862610,267.012787 
	C78.716362,267.123993 72.025505,260.522308 71.997055,245.840363 
	C71.981888,238.014099 71.807587,230.179291 72.102470,222.363342 
	C72.538139,210.816223 81.596199,203.544159 94.741348,203.821365 
	C106.828217,204.076248 114.874458,211.832748 114.937637,223.290405 
	C114.964325,228.129715 113.236504,229.978638 108.517921,230.160156 
	C102.468147,230.392853 100.269012,228.859177 99.828827,224.093872 
	C99.767792,223.432999 99.800606,222.756134 99.672363,222.110016 
	C98.902046,218.229202 97.424927,215.086060 92.613838,215.483749 
	C87.915665,215.872070 87.174126,219.296387 87.119598,222.953598 
	C87.000450,230.945114 87.077446,238.939621 87.087730,246.932907 
	C87.089226,248.096375 86.953171,249.316391 87.246704,250.412216 
	C88.025177,253.318344 88.761810,256.278503 92.777077,256.371124 
	C96.492012,256.456726 98.140480,254.303894 99.111954,251.190216 
	C99.309418,250.557343 99.509842,249.919846 99.632713,249.270065 
	C100.932701,242.395523 104.170998,240.085236 110.908211,242.280869 
	C112.671799,242.855606 114.715683,246.056427 114.697220,248.033142 
	C114.596275,258.834259 106.695602,265.929016 93.862610,267.012787 
z"/>
<path fill="#070707" opacity="1.000000" stroke="none" 
	d="
M421.061096,231.810684 
	C422.365814,223.137207 423.383240,222.036942 430.414795,222.089432 
	C432.440582,223.843567 434.071899,225.630020 435.770233,227.489838 
	C438.638947,222.312988 443.430817,220.989258 449.333374,222.793610 
	C454.974915,224.518158 457.678558,228.730362 458.110077,234.229263 
	C458.576996,240.178848 458.598999,246.182312 458.467010,252.154587 
	C458.334290,258.160309 456.251740,263.330475 450.171326,265.688110 
	C444.298004,267.965454 439.197937,266.652100 435.059662,260.584076 
	C435.059662,263.383331 435.059662,265.184265 435.132263,267.372833 
	C435.112183,271.065857 435.151031,274.381500 434.893341,277.673950 
	C434.576080,281.726746 432.716553,284.758728 428.251099,284.852936 
	C423.950562,284.943726 421.922668,282.068970 421.757141,278.187134 
	C421.411987,270.093719 421.407104,261.985809 421.249786,252.973511 
	C421.178436,245.312347 421.119751,238.561523 421.061096,231.810684 
M438.137817,233.183136 
	C433.814667,239.336044 434.375641,246.029297 436.517761,252.613235 
	C437.005310,254.111633 439.686554,255.887497 441.204681,255.756622 
	C442.499908,255.644943 444.415375,253.066513 444.586975,251.425598 
	C445.067657,246.829071 445.000702,242.140900 444.736938,237.512421 
	C444.545563,234.153610 442.958313,231.767532 438.137817,233.183136 
z"/>
<path fill="#050403" opacity="1.000000" stroke="none" 
	d="
M192.466934,224.061707 
	C193.291504,228.668213 194.113098,233.067017 194.255783,237.487717 
	C194.480682,244.456482 194.279861,251.440353 194.199051,258.417114 
	C194.154510,262.262756 193.522400,266.043152 188.930466,266.808533 
	C184.609711,267.528717 181.623306,265.519318 180.650406,260.938934 
	C172.804047,269.542877 164.562531,268.810120 158.450958,259.021515 
	C157.804092,251.701294 157.099182,244.564957 157.242264,237.445648 
	C157.309036,234.123047 159.017365,230.833450 160.168274,227.165985 
	C167.970261,220.040344 175.041565,220.551941 180.066101,227.786301 
	C181.775299,226.010925 183.252548,223.364731 185.409439,222.575134 
	C187.254868,221.899521 189.879486,223.352386 192.466934,224.061707 
M179.083801,235.986084 
	C177.926941,233.393738 175.811035,231.672958 173.363342,233.365402 
	C172.162857,234.195435 172.351120,237.091721 172.007812,239.069702 
	C171.900055,239.690613 172.108047,240.366318 172.007187,241.851486 
	C171.676361,244.891174 170.872086,247.981461 171.189621,250.951843 
	C171.384811,252.777603 172.927475,255.277405 174.515579,255.959045 
	C177.458923,257.222382 179.480453,254.555374 179.623550,252.164673 
	C179.930344,247.039062 179.404282,241.863617 179.083801,235.986084 
z"/>
<path fill="#070707" opacity="1.000000" stroke="none" 
	d="
M545.130493,255.508560 
	C545.788147,260.831207 542.554016,263.238068 538.721924,264.766632 
	C532.371948,267.299561 525.688965,267.595215 519.143311,265.733246 
	C513.695312,264.183502 509.324982,260.673676 508.886353,254.747437 
	C508.363312,247.679855 508.427795,240.488449 509.117828,233.436829 
	C509.668762,227.806595 513.744629,224.167389 519.205627,223.063522 
	C523.377686,222.220184 527.857666,221.746262 532.036255,222.315414 
	C542.700989,223.768082 547.956421,231.778854 545.965332,242.474655 
	C545.312378,245.982101 542.802124,246.930145 539.749634,246.967819 
	C533.939270,247.039536 528.127441,246.988602 521.855591,246.988602 
	C521.855591,248.568954 521.458557,250.016800 521.937622,251.063797 
	C522.956116,253.289795 523.988525,256.217102 525.856506,257.124115 
	C527.365906,257.856995 530.571716,256.616913 532.215820,255.266739 
	C537.158325,251.207687 541.246338,250.945526 545.130493,255.508560 
M532.898315,236.111557 
	C532.068420,231.990082 529.407288,230.782257 525.625122,231.784393 
	C520.970215,233.017761 521.884705,236.581970 521.965942,240.181396 
	C525.057800,240.181396 527.685608,240.006592 530.279297,240.229218 
	C533.023010,240.464737 533.239563,239.017273 532.898315,236.111557 
z"/>
<path fill="#070707" opacity="1.000000" stroke="none" 
	d="
M479.447296,266.988464 
	C473.672516,265.909332 469.116577,263.776306 467.453278,258.060059 
	C466.499664,254.782761 466.636566,251.591370 470.618164,250.422485 
	C474.223236,249.364151 476.926422,250.080688 478.366791,254.326736 
	C478.907532,255.920654 481.473572,257.163452 483.373596,257.809631 
	C484.241699,258.104858 486.850769,256.287689 486.755676,255.907700 
	C486.239746,253.846115 485.632782,251.281525 484.115265,250.102325 
	C480.608185,247.377060 476.442963,245.518753 472.761810,242.992386 
	C468.445496,240.030136 466.240662,236.008667 467.681091,230.543503 
	C469.060699,225.309113 472.907593,222.658966 477.777405,222.326813 
	C482.989990,221.971298 488.470306,222.069153 493.461884,223.382462 
	C496.029755,224.058075 498.421692,227.505096 499.737488,230.253128 
	C501.089294,233.076248 500.359314,236.312225 496.451904,237.257263 
	C493.111420,238.065201 490.426025,237.721924 488.761230,233.875427 
	C488.107117,232.364075 485.720947,231.339066 483.909149,230.719299 
	C483.165070,230.464767 480.885529,232.304169 480.949524,232.445389 
	C481.765625,234.245697 482.510223,236.424072 483.999878,237.498947 
	C486.800049,239.519394 490.181427,240.711548 493.129608,242.554459 
	C499.456665,246.509552 501.537750,250.748947 500.309021,256.490936 
	C499.050140,262.374146 494.513458,266.118164 487.364594,266.910614 
	C484.897186,267.184113 482.379852,267.007172 479.447296,266.988464 
z"/>
<path fill="#070606" opacity="1.000000" stroke="none" 
	d="
M124.998413,263.776031 
	C124.478226,258.309540 123.972900,253.197174 123.858932,248.076111 
	C123.718246,241.754608 123.824364,235.423950 123.977348,229.100983 
	C124.065514,225.457062 125.391495,222.496658 129.593231,222.158142 
	C134.079361,221.796692 135.774460,224.500381 136.215271,228.498520 
	C136.317123,229.422348 136.723419,230.312637 137.071426,231.496689 
	C138.737167,228.999985 139.745804,226.140167 141.761719,224.828888 
	C143.974625,223.389481 147.347626,222.479080 149.759720,223.101913 
	C151.068634,223.439896 151.923004,227.410355 152.099319,229.807281 
	C152.341248,233.096069 150.187180,235.107101 146.886765,235.228943 
	C138.608536,235.534546 137.072662,240.274643 137.167023,247.316666 
	C137.222763,251.476532 137.597778,255.729919 136.863983,259.765747 
	C136.426529,262.171722 134.549332,265.358551 132.529327,266.132599 
	C130.618668,266.864746 127.675758,264.903137 124.998413,263.776031 
z"/>
<path fill="#070606" opacity="1.000000" stroke="none" 
	d="
M277.957977,213.916992 
	C278.837585,205.388275 279.926544,204.210052 287.993896,203.984009 
	C291.557281,203.931366 294.262360,203.881927 296.967468,203.832504 
	C300.107574,203.937958 303.379242,203.538879 306.345215,204.312195 
	C308.623047,204.906082 311.583252,206.593216 312.269989,208.502686 
	C312.916168,210.299301 310.983398,213.023407 309.623627,215.669495 
	C303.492493,216.418015 297.923004,216.836502 292.266663,217.261520 
	C292.266663,221.125488 292.266663,224.987015 292.266663,229.188522 
	C295.738068,229.188522 298.918213,228.894928 302.017670,229.269135 
	C305.272644,229.662109 307.551666,231.552750 307.489014,235.222107 
	C307.425995,238.911301 305.060944,240.615158 301.783020,240.922760 
	C298.689789,241.213028 295.547882,240.985062 292.194397,240.985062 
	C292.194397,245.641968 292.194397,249.688629 292.194397,254.061707 
	C294.546448,254.061707 296.677216,254.046936 298.807678,254.065826 
	C300.968719,254.084991 303.144592,253.987595 305.287506,254.203796 
	C311.334137,254.813858 312.952148,256.761810 312.731781,262.861023 
	C312.731781,262.861023 312.832092,262.946777 312.573608,263.015869 
	C312.072540,263.651733 311.829987,264.218567 311.587402,264.785370 
	C311.587402,264.785370 311.822754,264.807617 311.484406,264.726288 
	C310.734619,265.088959 310.323181,265.532990 309.911743,265.976990 
	C309.911743,265.976990 309.985016,265.981262 309.563751,266.002563 
	C302.038300,266.328339 294.936523,266.778168 287.829224,266.897919 
	C280.143036,267.027405 278.196472,264.947479 278.158417,257.226318 
	C278.087219,242.789886 278.024323,228.353439 277.957977,213.916992 
z"/>
<path fill="#080605" opacity="1.000000" stroke="none" 
	d="
M353.247009,226.144440 
	C354.892487,228.643448 356.518188,230.982117 357.420074,233.572754 
	C358.620514,237.021118 358.096649,240.233810 354.083038,241.678543 
	C349.786011,243.225281 345.719025,241.581528 343.894470,236.977142 
	C342.755402,232.296478 339.725677,231.490540 336.556976,232.785217 
	C332.731995,234.348099 333.323242,237.801208 334.343628,241.042358 
	C334.216125,245.144638 333.592316,249.321732 334.194000,253.314117 
	C334.451508,255.022552 337.049652,257.148071 338.962250,257.653351 
	C341.700989,258.376923 343.135345,256.220337 344.101349,253.493408 
	C344.803192,251.512070 346.592346,248.763504 348.220917,248.519318 
	C351.016846,248.100067 354.622711,248.617859 356.791046,250.224014 
	C358.007874,251.125366 357.734863,255.293610 356.841034,257.455902 
	C355.831451,259.898346 353.741943,262.341248 351.476959,263.737518 
	C343.393311,268.720734 326.308990,268.565918 321.048523,256.766357 
	C319.658661,246.997910 318.782715,237.926224 322.216980,229.072876 
	C330.462250,220.629700 342.681000,219.444534 353.247009,226.144440 
z"/>
<path fill="#FDFDFD" opacity="1.000000" stroke="none" 
	d="
M322.028687,228.786469 
	C318.782715,237.926224 319.658661,246.997910 320.828888,256.493408 
	C318.355713,258.932678 315.902283,260.964020 313.090332,262.928162 
	C312.952148,256.761810 311.334137,254.813858 305.287506,254.203796 
	C303.144592,253.987595 300.968719,254.084991 298.807678,254.065826 
	C296.677216,254.046936 294.546448,254.061707 292.194397,254.061707 
	C292.194397,249.688629 292.194397,245.641968 292.194397,240.985062 
	C295.547882,240.985062 298.689789,241.213028 301.783020,240.922760 
	C305.060944,240.615158 307.425995,238.911301 307.489014,235.222107 
	C307.551666,231.552750 305.272644,229.662109 302.017670,229.269135 
	C298.918213,228.894928 295.738068,229.188522 292.266663,229.188522 
	C292.266663,224.987015 292.266663,221.125488 292.266663,217.261520 
	C297.923004,216.836502 303.492493,216.418015 309.468414,215.992401 
	C313.863342,220.156891 317.851868,224.328491 322.028687,228.786469 
z"/>
<path fill="#080605" opacity="1.000000" stroke="none" 
	d="
M370.915344,204.594025 
	C378.327484,203.677582 380.823578,205.545395 380.907440,212.625153 
	C381.088806,227.938995 381.051880,243.257401 380.905701,258.572052 
	C380.854309,263.957275 378.296295,266.827026 374.296722,266.913666 
	C370.199249,267.002472 367.612854,264.384277 367.508820,258.800629 
	C367.235992,244.155960 367.314056,229.504745 367.148926,214.388870 
	C368.259338,210.893890 369.473175,207.866180 370.915344,204.594025 
z"/>
<path fill="#FEFCFC" opacity="1.000000" stroke="none" 
	d="
M296.820312,203.553391 
	C294.262360,203.881927 291.557281,203.931366 288.400574,203.912842 
	C289.137695,202.320969 290.326477,200.797043 291.773834,199.074951 
	C293.579346,200.342621 295.126251,201.808456 296.820312,203.553391 
z"/>
<path fill="#FEDB9C" opacity="1.000000" stroke="none" 
	d="
M211.987793,206.003647 
	C212.460648,205.665375 212.933502,205.327118 213.720154,205.019836 
	C214.033966,205.050827 214.109177,205.131409 213.994904,205.414383 
	C213.355499,205.910919 212.830368,206.124466 212.226929,206.253418 
	C212.148651,206.168808 211.987793,206.003647 211.987793,206.003647 
z"/>
<path fill="#FEDB9C" opacity="1.000000" stroke="none" 
	d="
M211.079193,207.062012 
	C211.163834,206.700806 211.333679,206.422470 211.745667,206.073883 
	C211.987793,206.003647 212.148651,206.168808 212.146790,206.484100 
	C211.953339,207.090988 211.684616,207.260010 211.338791,207.306427 
	C211.338791,207.306427 211.164398,207.144897 211.079193,207.062012 
z"/>
<path fill="#080605" opacity="1.000000" stroke="none" 
	d="
M244.240204,246.346298 
	C244.102859,241.792648 244.102859,237.679123 244.102859,233.266144 
	C240.599045,232.323257 235.337494,233.200897 235.605942,226.998993 
	C235.850586,221.346909 240.483170,222.271347 244.235779,221.759659 
	C244.422684,217.804153 244.483795,214.029251 244.812347,210.277756 
	C245.120987,206.753525 246.981857,204.416046 250.707153,204.078156 
	C254.828674,203.704346 256.982788,206.161499 257.524109,209.778458 
	C258.105438,213.662460 258.033417,217.644257 258.218964,221.074463 
	C261.379913,222.046021 264.249390,222.927994 267.488037,224.421936 
	C268.141815,231.649231 267.670868,232.056229 258.068634,233.302612 
	C258.068634,238.377609 258.034241,243.491241 258.081787,248.604111 
	C258.109314,251.565094 259.104675,253.754364 262.570587,253.953857 
	C265.987061,254.150482 268.031830,255.940781 268.387238,259.448456 
	C266.353790,265.256226 263.925537,266.950378 257.653290,266.937164 
	C251.710022,266.924652 247.267502,264.512939 245.961334,259.562073 
	C244.876572,255.450424 244.864685,251.055725 244.240204,246.346298 
z"/>
<path fill="#FEFCFC" opacity="1.000000" stroke="none" 
	d="
M268.719238,259.563782 
	C268.031830,255.940781 265.987061,254.150482 262.570587,253.953857 
	C259.104675,253.754364 258.109314,251.565094 258.081787,248.604111 
	C258.034241,243.491241 258.068634,238.377609 258.068634,233.302612 
	C267.670868,232.056229 268.141815,231.649231 267.803284,224.628723 
	C270.950531,220.886185 274.151733,217.548828 277.655457,214.064240 
	C278.024323,228.353439 278.087219,242.789886 278.158417,257.226318 
	C278.196472,264.947479 280.143036,267.027405 287.829224,266.897919 
	C294.936523,266.778168 302.038300,266.328339 309.556000,265.966675 
	C307.615570,268.772461 305.361145,271.725250 302.881104,274.474426 
	C300.116150,277.539459 297.146088,280.419434 294.118774,283.679321 
	C287.021118,277.090607 280.079926,270.192474 273.110016,263.323456 
	C271.816376,262.048523 270.407135,260.890900 268.719238,259.563782 
z"/>
<path fill="#080605" opacity="1.000000" stroke="none" 
	d="
M394.195282,259.241333 
	C394.066986,250.954117 394.080933,243.009033 394.165436,235.064697 
	C394.190002,232.753860 394.220245,230.412827 394.594910,228.142914 
	C395.190063,224.537048 397.031067,222.041702 401.133301,222.021866 
	C405.289520,222.001770 407.273254,224.671204 407.626343,228.172272 
	C408.122711,233.093674 407.891022,238.088501 408.052216,243.510620 
	C408.064301,248.784622 408.119781,253.605835 407.892487,258.413666 
	C407.631744,263.929504 405.374817,266.821655 401.411316,266.898926 
	C396.517273,266.994354 394.851898,263.817627 394.195282,259.241333 
z"/>
<path fill="#FDFDFD" opacity="1.000000" stroke="none" 
	d="
M420.748871,231.963272 
	C421.119751,238.561523 421.178436,245.312347 421.125854,252.516922 
	C417.802734,249.790207 414.590851,246.609756 411.166565,243.160217 
	C414.115021,239.299377 417.275848,235.707611 420.748871,231.963272 
z"/>
<path fill="#070707" opacity="1.000000" stroke="none" 
	d="
M404.039429,217.101776 
	C400.880463,216.361130 397.204529,216.256470 395.565796,214.376266 
	C394.278259,212.898987 394.547150,208.491791 395.890533,206.741776 
	C397.207428,205.026367 400.838623,204.263718 403.295013,204.533157 
	C404.965332,204.716354 407.151733,207.163620 407.702667,209.016190 
	C408.623993,212.114212 408.007568,215.365784 404.039429,217.101776 
z"/>
<path fill="#FF9798" opacity="1.000000" stroke="none" 
	d="
M334.730255,241.116501 
	C333.323242,237.801208 332.731995,234.348099 336.556976,232.785217 
	C339.725677,231.490540 342.755402,232.296478 343.808960,236.597198 
	C340.660706,237.940109 339.893219,243.645325 334.730255,241.116501 
z"/>
<path fill="#FDFDFD" opacity="1.000000" stroke="none" 
	d="
M311.924011,264.719055 
	C311.829987,264.218567 312.072540,263.651733 312.605957,262.958313 
	C312.684753,263.438721 312.472717,264.045715 311.924011,264.719055 
z"/>
<path fill="#FDFDFD" opacity="1.000000" stroke="none" 
	d="
M310.243286,265.943970 
	C310.323181,265.532990 310.734619,265.088959 311.454773,264.611847 
	C311.367310,265.022797 310.971069,265.466888 310.243286,265.943970 
z"/>
<path fill="#070604" opacity="1.000000" stroke="none" 
	d="
M211.211472,207.644653 
	C211.684616,207.260010 211.953339,207.090988 212.225067,206.568695 
	C212.830368,206.124466 213.355499,205.910919 214.031265,205.455795 
	C218.115860,204.971298 222.110657,204.199585 225.965698,204.642960 
	C229.411453,205.039261 232.140274,207.189590 231.402847,211.515717 
	C230.700104,215.638458 227.913620,216.312012 224.388031,215.874115 
	C223.921509,215.816193 223.429443,215.963699 222.373688,216.078812 
	C222.171600,217.760117 221.963226,219.493683 221.727539,221.454483 
	C225.495560,222.665634 231.371048,220.978546 230.848816,227.840622 
	C230.428513,233.363159 226.012024,232.758667 221.848450,233.229141 
	C221.848450,240.873596 221.870316,248.485016 221.842102,256.096252 
	C221.815430,263.297943 219.547699,266.873474 215.046143,266.932373 
	C210.217316,266.995483 208.080368,263.654205 208.062393,255.938843 
	C208.044998,248.471573 208.058609,241.004211 208.058609,233.333313 
	C203.935989,232.684464 198.913818,233.260315 199.191360,227.089874 
	C199.442963,221.495865 204.020218,222.256897 206.923462,221.881729 
	C208.389725,216.983658 209.736938,212.483276 211.211472,207.644653 
z"/>
<path fill="#F2F2F2" opacity="1.000000" stroke="none" 
	d="
M438.524231,233.018463 
	C442.958313,231.767532 444.545563,234.153610 444.736938,237.512421 
	C445.000702,242.140900 445.067657,246.829071 444.586975,251.425598 
	C444.415375,253.066513 442.499908,255.644943 441.204681,255.756622 
	C439.686554,255.887497 437.005310,254.111633 436.517761,252.613235 
	C434.375641,246.029297 433.814667,239.336044 438.524231,233.018463 
z"/>
<path fill="#FEDB9C" opacity="1.000000" stroke="none" 
	d="
M179.219269,236.708572 
	C179.404282,241.863617 179.930344,247.039062 179.623550,252.164673 
	C179.480453,254.555374 177.458923,257.222382 174.515579,255.959045 
	C172.927475,255.277405 171.384811,252.777603 171.189621,250.951843 
	C170.872086,247.981461 171.676361,244.891174 172.462646,241.428635 
	C175.018494,239.573380 177.118881,238.140976 179.219269,236.708572 
z"/>
<path fill="#FF9798" opacity="1.000000" stroke="none" 
	d="
M179.151535,236.347321 
	C177.118881,238.140976 175.018494,239.573380 172.544800,241.011368 
	C172.108047,240.366318 171.900055,239.690613 172.007812,239.069702 
	C172.351120,237.091721 172.162857,234.195435 173.363342,233.365402 
	C175.811035,231.672958 177.926941,233.393738 179.151535,236.347321 
z"/>
<path fill="#F2F2F2" opacity="1.000000" stroke="none" 
	d="
M532.919067,236.538940 
	C533.239563,239.017273 533.023010,240.464737 530.279297,240.229218 
	C527.685608,240.006592 525.057800,240.181396 521.965942,240.181396 
	C521.884705,236.581970 520.970215,233.017761 525.625122,231.784393 
	C529.407288,230.782257 532.068420,231.990082 532.919067,236.538940 
z"/>
</svg>